<?xml version="1.0" encoding="UTF-8" standalone="no"?>
<!-- Created with Inkscape (http://www.inkscape.org/) -->

<svg
   xmlns:osb="http://www.openswatchbook.org/uri/2009/osb"
   xmlns:dc="http://purl.org/dc/elements/1.1/"
   xmlns:cc="http://creativecommons.org/ns#"
   xmlns:rdf="http://www.w3.org/1999/02/22-rdf-syntax-ns#"
   xmlns:svg="http://www.w3.org/2000/svg"
   xmlns="http://www.w3.org/2000/svg"
   xmlns:xlink="http://www.w3.org/1999/xlink"
   xmlns:sodipodi="http://sodipodi.sourceforge.net/DTD/sodipodi-0.dtd"
   xmlns:inkscape="http://www.inkscape.org/namespaces/inkscape"
   width="210mm"
   height="297mm"
   viewBox="0 0 210 297"
   version="1.1"
   id="svg8"
   inkscape:version="0.92.5 (2060ec1f9f, 2020-04-08)"
   sodipodi:docname="CapuCircle.svg">
  <defs
     id="defs2">
    <linearGradient
       id="linearGradient6082"
       osb:paint="solid">
      <stop
         style="stop-color:#35ce00;stop-opacity:0;"
         offset="0"
         id="stop6080" />
    </linearGradient>
    <linearGradient
       id="linearGradient6076"
       osb:paint="solid">
      <stop
         style="stop-color:#000000;stop-opacity:1;"
         offset="0"
         id="stop6074" />
    </linearGradient>
    <linearGradient
       inkscape:collect="always"
       xlink:href="#linearGradient6076"
       id="linearGradient6078"
       x1="28.899651"
       y1="115.65762"
       x2="90.035294"
       y2="115.65762"
       gradientUnits="userSpaceOnUse"
       gradientTransform="translate(17.639789,-7.5224945)" />
    <linearGradient
       inkscape:collect="always"
       xlink:href="#linearGradient6082"
       id="linearGradient6084"
       x1="28.899651"
       y1="115.65762"
       x2="90.035294"
       y2="115.65762"
       gradientUnits="userSpaceOnUse"
       gradientTransform="translate(17.639789,-7.5224945)" />
    <linearGradient
       inkscape:collect="always"
       xlink:href="#linearGradient6082"
       id="linearGradient6123"
       gradientUnits="userSpaceOnUse"
       gradientTransform="matrix(0.65466444,0,0,0.65070851,94.035352,35.270411)"
       x1="28.899651"
       y1="115.65762"
       x2="90.035294"
       y2="115.65762" />
    <linearGradient
       inkscape:collect="always"
       xlink:href="#linearGradient6076"
       id="linearGradient6125"
       gradientUnits="userSpaceOnUse"
       gradientTransform="matrix(0.65466444,0,0,0.65070851,94.035352,35.270411)"
       x1="28.899651"
       y1="115.65762"
       x2="90.035294"
       y2="115.65762" />
    <linearGradient
       inkscape:collect="always"
       xlink:href="#linearGradient6082"
       id="linearGradient6193"
       gradientUnits="userSpaceOnUse"
       gradientTransform="matrix(0.65466443,0,0,0.65070849,66.015879,106.51339)"
       x1="28.899651"
       y1="115.65762"
       x2="90.035294"
       y2="115.65762" />
    <linearGradient
       inkscape:collect="always"
       xlink:href="#linearGradient6076"
       id="linearGradient6195"
       gradientUnits="userSpaceOnUse"
       gradientTransform="matrix(0.65466443,0,0,0.65070849,66.015879,106.51339)"
       x1="28.899651"
       y1="115.65762"
       x2="90.035294"
       y2="115.65762" />
    <linearGradient
       inkscape:collect="always"
       xlink:href="#linearGradient6082"
       id="linearGradient5382"
       gradientUnits="userSpaceOnUse"
       gradientTransform="matrix(2.5371058,0,0,2.8334649,-47.750933,-193.98769)"
       x1="28.899651"
       y1="115.65762"
       x2="90.035294"
       y2="115.65762" />
    <linearGradient
       inkscape:collect="always"
       xlink:href="#linearGradient6076"
       id="linearGradient5384"
       gradientUnits="userSpaceOnUse"
       gradientTransform="matrix(2.5371058,0,0,2.8334649,-47.750933,-193.98769)"
       x1="28.899651"
       y1="115.65762"
       x2="90.035294"
       y2="115.65762" />
  </defs>
  <sodipodi:namedview
     id="base"
     pagecolor="#ffffff"
     bordercolor="#666666"
     borderopacity="1.0"
     inkscape:pageopacity="0.0"
     inkscape:pageshadow="2"
     inkscape:zoom="0.86808532"
     inkscape:cx="125.15077"
     inkscape:cy="640.0837"
     inkscape:document-units="mm"
     inkscape:current-layer="layer1"
     showgrid="false"
     inkscape:window-width="1920"
     inkscape:window-height="1014"
     inkscape:window-x="0"
     inkscape:window-y="29"
     inkscape:window-maximized="1"
     inkscape:snap-object-midpoints="true"
     inkscape:snap-global="false" />
  <metadata
     id="metadata5">
    <rdf:RDF>
      <cc:Work
         rdf:about="">
        <dc:format>image/svg+xml</dc:format>
        <dc:type
           rdf:resource="http://purl.org/dc/dcmitype/StillImage" />
        <dc:title />
      </cc:Work>
    </rdf:RDF>
  </metadata>
  <g
     inkscape:label="Layer 1"
     inkscape:groupmode="layer"
     id="layer1">
    <g
       id="g1098"
       inkscape:export-filename="/data/git/Allku.Expert/png/Capu.png"
       inkscape:export-xdpi="86.13913"
       inkscape:export-ydpi="86.13913">
      <g
         id="g1069">
        <circle
           id="path10"
           cx="78.009895"
           cy="107.76706"
           style="stroke-width:3.1906476;stroke-miterlimit:4;stroke-dasharray:none"
           r="4.5" />
        <ellipse
           id="path12"
           cx="77.107262"
           cy="108.13512"
           rx="30.067822"
           ry="28.196934"
           style="opacity:1;fill:url(#linearGradient6084);fill-opacity:1;stroke:url(#linearGradient6078);stroke-width:2.70000005;stroke-miterlimit:4;stroke-dasharray:none" />
        <ellipse
           id="path10-5"
           cx="133.75397"
           cy="110.00806"
           rx="2.4496059"
           ry="2.5217612"
           style="stroke-width:2.70000005;stroke-miterlimit:4;stroke-dasharray:none" />
        <ellipse
           id="path12-3"
           cx="132.96658"
           cy="110.52981"
           rx="19.684334"
           ry="18.347984"
           style="opacity:1;fill:url(#linearGradient6123);fill-opacity:1;stroke:url(#linearGradient6125);stroke-width:2.70000005;stroke-miterlimit:4;stroke-dasharray:none" />
        <path
           style="fill:none;stroke:#000000;stroke-width:2.70000005;stroke-linecap:butt;stroke-linejoin:miter;stroke-miterlimit:4;stroke-dasharray:none;stroke-opacity:1"
           d="m 76.141227,155.96433 c 54.198093,-0.36603 54.515043,-0.18302 54.515043,-0.18302 l 14.57959,15.92244 v 0 l -13.94569,16.8375 v 0 l 6.022,9.51686 v 0 l -58.476884,-0.54905 v 0 L 84.223398,188.9073 63.78026,174.44899 Z"
           id="path6131"
           inkscape:connector-curvature="0" />
        <path
           style="fill:none;stroke:#000000;stroke-width:2.70000005;stroke-linecap:butt;stroke-linejoin:miter;stroke-miterlimit:4;stroke-dasharray:none;stroke-opacity:1"
           d="m 104.63602,173.60542 -0.13363,8.15172"
           id="path6154"
           inkscape:connector-curvature="0" />
        <path
           style="fill:none;stroke:#000000;stroke-width:2.70000005;stroke-linecap:butt;stroke-linejoin:miter;stroke-miterlimit:4;stroke-dasharray:none;stroke-opacity:1"
           d="m 111.31776,181.48987 7.21627,-2.27179"
           id="path6156"
           inkscape:connector-curvature="0" />
        <path
           style="fill:none;stroke:#000000;stroke-width:2.70000005;stroke-linecap:butt;stroke-linejoin:miter;stroke-miterlimit:4;stroke-dasharray:none;stroke-opacity:1"
           d="m 98.488819,181.2226 -6.949006,-3.20724"
           id="path6158"
           inkscape:connector-curvature="0" />
        <path
           id="path12-3-1"
           style="opacity:1;fill:url(#linearGradient6193);fill-opacity:1;stroke:url(#linearGradient6195);stroke-width:2.70000005;stroke-miterlimit:4;stroke-dasharray:none"
           d="m 104.94728,163.42476 c -9.819974,0.007 -18.131966,6.75998 -19.481515,15.82642 2.087181,-18.05743 36.146275,-23.326 36.772455,-0.0331 2.17765,0 1.45177,-2.6e-4 2.17765,0 -1.36494,-9.04878 -9.66527,-15.7822 -19.46859,-15.79335 z"
           inkscape:connector-curvature="0"
           sodipodi:nodetypes="ccccc" />
        <path
           style="opacity:1;fill:#ab0000;fill-opacity:0;stroke-width:2.70000005;stroke-miterlimit:4;stroke-dasharray:none"
           d="m 121.80284,178.57377 c -0.0134,-3.27459 -1.71083,-7.65881 -3.81574,-9.85537 -3.1913,-3.33026 -8.81859,-5.09919 -14.28308,-4.48986 -5.368511,0.59862 -9.651359,2.5818 -13.193992,6.10947 -2.495904,2.48538 -3.739896,4.60779 -4.319034,7.36885 -0.181245,0.86409 -0.450239,1.46827 -0.653704,1.46827 -0.476692,0 -0.433173,-0.7405 0.154477,-2.62863 1.32642,-4.26179 5.189239,-8.81847 9.25513,-10.91759 3.73152,-1.92649 5.562523,-2.35661 10.022603,-2.35441 4.46312,0.002 6.754,0.50934 10.01057,2.21602 2.74954,1.44096 6.3677,5.11565 7.81621,7.93831 1.13394,2.20969 1.95117,4.5808 1.95117,5.66117 0,0.57293 -0.11087,0.61967 -1.46998,0.61967 h -1.46999 l -0.005,-1.1359 z m 2.1428,0.11533 c 0,-0.94861 -1.99513,-5.89329 -2.26785,-5.62057 -0.0516,0.0516 0.0664,0.71122 0.26218,1.46589 0.19576,0.75468 0.4403,2.04744 0.54342,2.87279 0.16877,1.35076 0.25115,1.50065 0.82487,1.50065 0.35056,0 0.63738,-0.0984 0.63738,-0.21876 z"
           id="path6308"
           inkscape:connector-curvature="0" />
        <path
           style="opacity:1;fill:#ab0000;fill-opacity:0;stroke-width:2.70000005;stroke-miterlimit:4;stroke-dasharray:none"
           d="m 121.80284,178.57377 c -0.0134,-3.27459 -1.71083,-7.65881 -3.81574,-9.85537 -3.1913,-3.33026 -8.81859,-5.09919 -14.28308,-4.48986 -5.368511,0.59862 -9.651359,2.5818 -13.193992,6.10947 -2.495904,2.48538 -3.739896,4.60779 -4.319034,7.36885 -0.181245,0.86409 -0.450239,1.46827 -0.653704,1.46827 -0.476692,0 -0.433173,-0.7405 0.154477,-2.62863 1.32642,-4.26179 5.189239,-8.81847 9.25513,-10.91759 3.73152,-1.92649 5.562523,-2.35661 10.022603,-2.35441 4.46312,0.002 6.754,0.50934 10.01057,2.21602 2.74954,1.44096 6.3677,5.11565 7.81621,7.93831 1.13394,2.20969 1.95117,4.5808 1.95117,5.66117 0,0.57293 -0.11087,0.61967 -1.46998,0.61967 h -1.46999 l -0.005,-1.1359 z m 2.1428,0.11533 c 0,-0.94861 -1.99513,-5.89329 -2.26785,-5.62057 -0.0516,0.0516 0.0664,0.71122 0.26218,1.46589 0.19576,0.75468 0.4403,2.04744 0.54342,2.87279 0.16877,1.35076 0.25115,1.50065 0.82487,1.50065 0.35056,0 0.63738,-0.0984 0.63738,-0.21876 z"
           id="path6310"
           inkscape:connector-curvature="0" />
        <path
           style="opacity:1;fill:#ab0000;fill-opacity:0;stroke-width:2.70000005;stroke-miterlimit:4;stroke-dasharray:none"
           d="m 122.70905,178.08935 c -0.0775,-1.05777 -0.3027,-2.43022 -0.57141,-3.4829 -0.14188,-0.55582 -0.24604,-1.02295 -0.23147,-1.03807 0.0146,-0.0151 0.23631,0.40983 0.49273,0.94434 0.50643,1.05561 1.04907,2.59718 1.259,3.57663 l 0.13247,0.61805 h -0.51801 -0.51801 z"
           id="path6312"
           inkscape:connector-curvature="0" />
        <path
           inkscape:connector-curvature="0"
           style="opacity:1;fill:url(#linearGradient5382);fill-opacity:1;stroke:url(#linearGradient5384);stroke-width:2.70000005;stroke-miterlimit:4;stroke-dasharray:none"
           d="m 34.277493,61.546109 c -19.340887,0.22022 -31.0066234,36.144026 -19.1456,64.140261 0.219543,-0.42617 0.411769,-0.79697 0.609782,-1.17978 -0.06584,-0.0712 -0.12934,-0.14492 -0.197404,-0.24184 -0.01386,-0.0232 -0.0056,-0.0132 -0.0098,-0.0222 -0.02076,-0.0246 -0.02498,-0.028 -0.06666,-0.0801 -0.03093,-0.0386 -0.05847,-0.08 -0.0863,-0.12093 -0.0028,-0.004 -0.003,-0.006 -0.0078,-0.0129 -0.01038,-0.006 -0.0215,-0.0106 -0.03152,-0.017 -0.05525,-0.0359 -0.09095,-0.0961 -0.131775,-0.14779 -0.126876,-0.1607 -0.225781,-0.35386 -0.269234,-0.55397 -0.0075,-0.0232 -0.02039,-0.0451 -0.02274,-0.0692 -9.52e-4,-0.01 0.02231,0.0328 0.01809,0.0238 -0.033,-0.0704 -0.09034,-0.1298 -0.113171,-0.20412 -0.005,-0.0163 0.04893,0.0477 0.03927,0.0336 -0.03704,-0.0539 -0.08138,-0.10267 -0.121956,-0.154 -0.137638,-0.23251 -0.06766,-0.094 -0.196371,-0.50849 -0.0056,-0.0182 0.03294,0.0673 0.02946,0.0486 -0.008,-0.043 -0.04812,-0.0957 -0.01499,-0.0496 -0.02729,-0.0526 -0.0558,-0.1043 -0.08165,-0.15761 -0.0045,-0.009 -0.0081,-0.0193 -0.0093,-0.0295 -2.18e-4,-0.002 0.0067,-7.9e-4 0.0057,-0.002 -0.02887,-0.047 -0.06668,-0.0887 -0.09147,-0.13798 -0.163876,-0.326 -0.130659,-0.26577 -0.176733,-0.59221 -1.12e-4,-0.34876 -7.15e-4,-0.6977 0,-1.04645 1.5e-5,-0.19418 -0.0039,-0.38823 0,-0.58239 0.006,-0.25522 0.01585,-0.5105 -0.02687,-0.76378 0.01114,-0.22678 4.3e-5,-0.18604 0.04444,-0.40153 0.01498,-0.0727 0.03105,-0.14519 0.04961,-0.21704 0.01151,-0.0446 0.03521,-0.0866 0.04031,-0.13229 0.01742,-0.15618 -0.01845,-0.31517 0,-0.47129 0.08137,-0.6886 0.470347,-1.03289 0.819588,-1.03301 0.349242,-1.1e-4 0.658827,0.34396 0.58136,1.03301 v 5.3e-4 c -0.01756,0.15622 0.01659,0.31502 0,0.47129 -0.01451,0.13667 -0.0421,0.27167 -0.0677,0.4067 -0.0162,0.0855 -0.04018,0.16907 -0.05788,0.25424 -0.03443,0.16569 -0.02981,0.1475 -0.0093,0.0899 0.0021,-0.002 0.0063,-0.007 0.0067,-0.005 0.04051,0.26477 0.02644,0.53497 0.02015,0.8015 -0.0031,0.18315 5.03e-4,0.36615 5.29e-4,0.54932 -6.35e-4,0.31295 -6.35e-4,0.62601 -5.29e-4,0.93896 0.0095,0.0156 0.02114,0.0408 0.02842,0.0532 0.01118,0.019 0.0067,0.0137 0.01499,0.0279 0.12315,-0.13825 0.467498,0.18527 1.09089,1.09657 0.221288,-0.42109 0.390164,-0.73626 0.408244,-0.74983 0.01598,-0.012 0.334275,0.88641 0.772046,2.14406 -0.0077,0.14574 -0.01093,0.29903 -0.01344,0.4532 0.129953,0.21705 0.267502,0.44982 0.409794,0.69298 0.688001,1.99182 1.686447,4.91977 2.739368,8.01088 -0.06246,-0.0238 -0.127166,-0.0419 -0.190686,-0.063 0.01438,0.0549 0.02675,0.12384 0.03462,0.22324 0.0029,0.0368 0.01788,0.14577 0.0088,0.11007 -0.01981,-0.0776 -0.02067,-0.15928 -0.04134,-0.23668 -0.01019,-0.0382 -0.02731,-0.0741 -0.04289,-0.11058 -0.04648,-0.015 -0.09197,-0.0324 -0.13901,-0.046 -0.102367,0.11687 -0.231141,0.37842 -0.367419,0.62322 0.0069,0.0225 0.0155,0.0455 0.02222,0.0677 0.07044,0.18222 0.200118,0.33 0.311092,0.48886 0.01779,0.0255 0.04248,0.0468 0.05581,0.0749 0.04432,0.0933 0.07708,0.19155 0.115755,0.28732 0.0086,0.0257 0.01279,0.0532 0.02584,0.077 0.01167,0.0213 0.03596,0.0342 0.04703,0.0558 0.145722,0.28422 0.07206,0.18901 0.185518,0.44906 0.0083,0.0191 0.08306,0.13022 0.08992,0.14056 0.06675,0.0401 0.06725,0.15954 0.135393,0.20464 0.01068,0.007 -0.0038,-0.0255 -0.0057,-0.0382 0.0096,0.008 0.01885,0.0166 0.02894,0.0243 0.0027,-0.50187 0.0036,-1.01217 0.0093,-1.5012 0.523217,1.53669 0.964155,2.82487 1.493449,4.38009 0.02576,0.0568 0.054,0.11207 0.09043,0.16227 0.0239,0.0348 0.049,0.0694 0.07183,0.1049 0.04629,0.0721 0.09461,0.16476 0.151929,0.23358 0.01679,0.0202 0.04532,0.0284 0.06201,0.0486 0.0074,0.009 0.01395,0.0187 0.02119,0.0279 5.56e-4,-0.80789 0.0015,-1.61578 -0.001,-2.42363 -0.0041,-1.59853 3.44e-4,-3.19665 0.02377,-4.79505 -0.0278,-1.41024 -0.264666,-2.78188 0.142626,-4.17804 0.05549,-0.23635 0.108801,-0.47315 0.166399,-0.709 0.05411,-0.22157 0.130459,-0.43864 0.168465,-0.66353 0.02526,-0.14944 0.04382,-0.29973 0.05943,-0.45062 -0.0076,-0.10723 -0.01436,-0.16863 0.0021,-0.293 0.0077,-0.0583 0.02247,-0.11544 0.03617,-0.1726 0.0077,-0.11583 0.01494,-0.2318 0.0217,-0.34778 0,-0.0606 1e-6,-0.12127 0,-0.1819 6e-6,-0.14977 7.4e-5,-0.2993 0,-0.44907 -7.2e-5,-0.16892 -1.18e-4,-0.33803 0,-0.50695 -5.3e-4,-0.13004 -0.0024,-0.26014 0.0021,-0.39016 0.0046,-0.20331 -0.02656,-0.40405 -0.0098,-0.60771 0.02095,-0.0938 0.04054,-0.18808 0.06253,-0.28163 5.03e-4,-0.0243 0.001,-0.0527 0.001,-0.0553 4.76e-4,-0.0214 0.0011,-0.0432 0.0016,-0.0646 2.16e-4,-0.0629 -0.0037,-0.12573 -0.0067,-0.18861 -0.676218,-0.58305 -1.309149,-1.0366 -1.886189,-1.34101 5.829518,-55.453672 46.526546,49.05497 46.73513,60.45936 14.961261,16.07616 14.012548,17.56064 35.887217,17.59789 22.05127,-0.0379 17.82264,-3.29882 32.80109,-19.6019 8.18119,-11.28875 9.46897,-61.34723 18.42989,-44.38179 -5.68071,10.15322 13.25278,-16.09618 6.68538,-28.00966 41.89611,34.05502 53.55919,46.00521 18.74666,-26.832966 -17.83879,-20.340323 -25.57168,23.147206 -42.2673,-12.993455 L 103.50221,62.145046 C 75.454324,64.594291 95.006079,57.93862 56.698864,76.271825 48.918349,65.992905 41.386368,61.665479 34.735865,61.547659 c -0.153236,-0.003 -0.306078,-0.003 -0.458372,-0.002 z"
           id="path5375" />
        <path
           style="fill:none;stroke:#000000;stroke-width:2.70000005;stroke-linecap:butt;stroke-linejoin:miter;stroke-miterlimit:4;stroke-dasharray:none;stroke-opacity:1"
           d="m 109.01603,80.12786 c 0.0642,-3.854744 0.0195,-1.698844 -1.6234,-4.623153 -0.18898,-0.336351 -0.25022,-0.786435 -0.40586,-1.155788 -0.25096,-0.595567 -0.51904,-1.178052 -0.8117,-1.733685 -0.85614,-1.62541 -0.031,1.067325 -1.21756,-2.311574 -0.0605,-0.172297 0.0222,-0.387885 0,-0.577899 -0.11341,-0.968864 -0.29245,-1.920604 -0.40586,-2.889468 -0.10147,-0.866843 0.20293,-0.577894 0,-1.733685 -0.0733,-0.417875 -0.31019,-0.747156 -0.40585,-1.155787 -0.0655,-0.279996 0,-3.784401 0,-4.045261 0,-0.577894 0,-1.155786 0,-1.73368 0,-0.385267 -0.0656,-0.78203 0,-1.155791 0.0733,-0.417876 0.2935,-0.755857 0.40585,-1.155788 0.15889,-0.565585 0.21454,-1.188837 0.40586,-1.73368 0.0856,-0.243664 0.27056,-0.385268 0.40585,-0.577899 0.27057,-0.385263 0.49333,-0.853562 0.81171,-1.155788 0.11256,-0.106856 0.27751,0.06091 0.40585,0 0.28698,-0.136211 0.56001,-0.338964 0.81171,-0.577892 0.92871,-0.8816 -0.25379,-0.457443 1.21756,-1.155788 0.15277,-0.07252 1.99581,-0.01585 2.02926,0 0.3988,0.189286 0.66963,1.43025 0.8117,1.73368 0.10609,0.226668 0.29973,0.351226 0.40585,0.577894 0.49952,1.066885 0.71805,2.400486 1.21756,3.467367 0.10608,0.226668 0.35946,0.313604 0.40585,0.577894 0.76004,4.32884 -0.74799,-0.396465 0.40586,2.889471"
           id="path989"
           inkscape:connector-curvature="0" />
        <path
           style="fill:none;stroke:#000000;stroke-width:2.70000005;stroke-linecap:butt;stroke-linejoin:miter;stroke-miterlimit:4;stroke-dasharray:none;stroke-opacity:1"
           d="m 107.72321,78.756558 c 0.88194,-0.125992 1.97536,0.208685 2.64583,-0.377976 0.57676,-0.504664 0.24089,-1.51384 0.37798,-2.267858 0.11492,-0.632073 0.22216,-1.266626 0.37798,-1.889881 0.45295,-1.811806 1.43803,-3.504586 2.64583,-4.913691 0.6243,-0.728348 1.35597,-1.525124 2.26786,-1.889879 0.36992,-0.147971 0.74093,-0.312476 1.13393,-0.377976 0.37283,-0.06214 0.75595,0 1.13392,0 0.50397,0 1.00794,0 1.51191,0 0.37798,0 0.75595,0 1.13393,0 0.37798,0 0.76329,-0.07413 1.13393,0 0.83173,0.166346 0.86406,0.648044 1.5119,1.133928 0.22538,0.169037 0.51437,0.233029 0.75596,0.377975 3.68332,2.209996 -0.1291,-0.09682 1.5119,1.13393 1.31546,0.986597 1.5119,0.65872 1.5119,2.267855 0,0.125992 0,0.251984 0,0.377979 0,0.125992 0.0699,0.273142 0,0.377976 -0.30471,0.457073 -1.30843,1.366543 -1.88988,1.511903 -0.48892,0.122232 -1.06114,-0.22538 -1.5119,0 -0.31874,0.159369 -0.45944,0.558281 -0.75595,0.755954 -0.10484,0.06989 -0.25846,-0.03984 -0.37798,0 -0.26727,0.08909 -0.50397,0.251984 -0.75595,0.377976"
           id="path991"
           inkscape:connector-curvature="0" />
        <path
           style="fill:none;stroke:#000000;stroke-width:2.70000005;stroke-linecap:butt;stroke-linejoin:miter;stroke-miterlimit:4;stroke-dasharray:none;stroke-opacity:1"
           d="m 107.68225,78.862916 c 3.51468,0.663213 5.88275,0.726004 8.95883,0.726004 0.35133,0 0.72069,-0.07652 1.05398,0 0.23568,0.05412 0.3048,0.286474 0.527,0.363002 1.29794,0.447028 -0.47575,-1.053698 1.58097,0.363005 0.27775,0.191318 0.3091,0.500879 0.52698,0.726003 0.2756,0.284761 0.83178,0.419893 1.05398,0.726004 0.0785,0.108226 -0.0555,0.248211 0,0.363002 0.12422,0.256681 0.43172,0.463517 0.52699,0.726006 0.0852,0.234774 0,0.484003 0,0.726004 0,0.121 -0.0785,0.254775 0,0.363001 0.11112,0.153056 0.41589,0.209947 0.52698,0.363002 0.0802,0.110473 0,0.925527 0,1.089006"
           id="path993"
           inkscape:connector-curvature="0" />
        <path
           style="fill:none;stroke:#000000;stroke-width:2.70000005;stroke-linecap:butt;stroke-linejoin:miter;stroke-miterlimit:4;stroke-dasharray:none;stroke-opacity:1"
           d="m 128.13393,172.49465 24.94643,13.60714 -1.51191,-0.75596 3.40179,0.37798"
           id="path1014"
           inkscape:connector-curvature="0" />
        <path
           style="fill:none;stroke:#000000;stroke-width:2.70000005;stroke-linecap:butt;stroke-linejoin:miter;stroke-miterlimit:4;stroke-dasharray:none;stroke-opacity:1"
           d="m 128.179,177.63075 29.13471,5.14484"
           id="path1016"
           inkscape:connector-curvature="0" />
        <path
           style="fill:none;stroke:#000000;stroke-width:2.70000005;stroke-linecap:butt;stroke-linejoin:miter;stroke-miterlimit:4;stroke-dasharray:none;stroke-opacity:1"
           d="m 75.322273,171.69927 -24.041698,-4.443"
           id="path1018"
           inkscape:connector-curvature="0" />
        <path
           style="fill:none;stroke:#000000;stroke-width:2.70000005;stroke-linecap:butt;stroke-linejoin:miter;stroke-miterlimit:4;stroke-dasharray:none;stroke-opacity:1"
           d="m 80.711396,176.98946 -29.133459,0.79071"
           id="path1020"
           inkscape:connector-curvature="0" />
        <path
           style="fill:none;stroke:#000000;stroke-width:2.70000005;stroke-linecap:butt;stroke-linejoin:miter;stroke-miterlimit:4;stroke-dasharray:none;stroke-opacity:1"
           d="M 78.619045,172.96711 66.523808,190.732"
           id="path1022"
           inkscape:connector-curvature="0" />
      </g>
      <ellipse
         ry="102.18943"
         rx="102.18942"
         cy="119.42175"
         cx="103.5909"
         id="path1071"
         style="fill:none;fill-opacity:1;stroke:#00b2da;stroke-width:2.62114668;stroke-miterlimit:4;stroke-dasharray:none;stroke-opacity:1" />
    </g>
  </g>
</svg>
