<?xml version="1.0" encoding="UTF-8" standalone="no"?>
<!-- Created with Inkscape (http://www.inkscape.org/) -->

<svg
   width="210mm"
   height="297mm"
   viewBox="0 0 210 297"
   version="1.1"
   id="svg8"
   inkscape:version="1.1.2 (0a00cf5339, 2022-02-04)"
   sodipodi:docname="Capu2023.svg"
   inkscape:export-filename="/home/jorgeluis/Projects/Allku.Expert/png/Capu2023.png"
   inkscape:export-xdpi="96"
   inkscape:export-ydpi="96"
   xmlns:inkscape="http://www.inkscape.org/namespaces/inkscape"
   xmlns:sodipodi="http://sodipodi.sourceforge.net/DTD/sodipodi-0.dtd"
   xmlns:xlink="http://www.w3.org/1999/xlink"
   xmlns="http://www.w3.org/2000/svg"
   xmlns:svg="http://www.w3.org/2000/svg"
   xmlns:rdf="http://www.w3.org/1999/02/22-rdf-syntax-ns#"
   xmlns:cc="http://creativecommons.org/ns#"
   xmlns:dc="http://purl.org/dc/elements/1.1/">
  <defs
     id="defs2">
    <linearGradient
       id="linearGradient6082"
       inkscape:swatch="solid">
      <stop
         style="stop-color:#35ce00;stop-opacity:0;"
         offset="0"
         id="stop6080" />
    </linearGradient>
    <linearGradient
       id="linearGradient6076"
       inkscape:swatch="solid">
      <stop
         style="stop-color:#000000;stop-opacity:1;"
         offset="0"
         id="stop6074" />
    </linearGradient>
    <linearGradient
       inkscape:collect="always"
       xlink:href="#linearGradient6076"
       id="linearGradient6078"
       x1="28.899651"
       y1="115.65762"
       x2="90.035294"
       y2="115.65762"
       gradientUnits="userSpaceOnUse"
       gradientTransform="translate(28.223129,-6.4641618)" />
    <linearGradient
       inkscape:collect="always"
       xlink:href="#linearGradient6082"
       id="linearGradient6084"
       x1="28.899651"
       y1="115.65762"
       x2="90.035294"
       y2="115.65762"
       gradientUnits="userSpaceOnUse"
       gradientTransform="translate(28.223129,-6.4641618)" />
    <linearGradient
       inkscape:collect="always"
       xlink:href="#linearGradient6082"
       id="linearGradient6123"
       gradientUnits="userSpaceOnUse"
       gradientTransform="matrix(0.65466444,0,0,0.65070851,104.61872,35.270411)"
       x1="28.899651"
       y1="115.65762"
       x2="90.035294"
       y2="115.65762" />
    <linearGradient
       inkscape:collect="always"
       xlink:href="#linearGradient6076"
       id="linearGradient6125"
       gradientUnits="userSpaceOnUse"
       gradientTransform="matrix(0.65466444,0,0,0.65070851,104.61872,35.270411)"
       x1="28.899651"
       y1="115.65762"
       x2="90.035294"
       y2="115.65762" />
    <linearGradient
       inkscape:collect="always"
       xlink:href="#linearGradient6082"
       id="linearGradient6193"
       gradientUnits="userSpaceOnUse"
       gradientTransform="matrix(0.65466443,0,0,0.65070849,76.599219,106.51339)"
       x1="28.899651"
       y1="115.65762"
       x2="90.035294"
       y2="115.65762" />
    <linearGradient
       inkscape:collect="always"
       xlink:href="#linearGradient6076"
       id="linearGradient6195"
       gradientUnits="userSpaceOnUse"
       gradientTransform="matrix(0.65466443,0,0,0.65070849,76.599219,106.51339)"
       x1="28.899651"
       y1="115.65762"
       x2="90.035294"
       y2="115.65762" />
  </defs>
  <sodipodi:namedview
     id="base"
     pagecolor="#ffffff"
     bordercolor="#666666"
     borderopacity="1.0"
     inkscape:pageopacity="0.0"
     inkscape:pageshadow="2"
     inkscape:zoom="1.4142136"
     inkscape:cx="289.20667"
     inkscape:cy="573.4636"
     inkscape:document-units="mm"
     inkscape:current-layer="g937"
     showgrid="false"
     inkscape:window-width="2560"
     inkscape:window-height="1362"
     inkscape:window-x="1920"
     inkscape:window-y="0"
     inkscape:window-maximized="1"
     inkscape:snap-object-midpoints="true"
     inkscape:snap-global="false"
     inkscape:pagecheckerboard="0" />
  <metadata
     id="metadata5">
    <rdf:RDF>
      <cc:Work
         rdf:about="">
        <dc:format>image/svg+xml</dc:format>
        <dc:type
           rdf:resource="http://purl.org/dc/dcmitype/StillImage" />
        <dc:title />
      </cc:Work>
    </rdf:RDF>
  </metadata>
  <g
     inkscape:label="Layer 1"
     inkscape:groupmode="layer"
     id="layer1">
    <g
       id="g937">
      <ellipse
         style="stroke-width:0.264583"
         ry="3.8754082"
         rx="3.7417734"
         cy="108.39165"
         cx="88.893318"
         id="path10" />
      <ellipse
         style="opacity:1;fill:url(#linearGradient6084);fill-opacity:1;stroke:url(#linearGradient6078);stroke-width:2.7;stroke-miterlimit:4;stroke-dasharray:none"
         ry="28.196934"
         rx="30.067822"
         cy="109.19346"
         cx="87.690605"
         id="path12" />
      <ellipse
         style="stroke-width:0.2;stroke-miterlimit:4;stroke-dasharray:none"
         ry="2.5217612"
         rx="2.4496059"
         cy="110.00806"
         cx="144.33716"
         id="path10-5" />
      <ellipse
         style="opacity:1;fill:url(#linearGradient6123);fill-opacity:1;stroke:url(#linearGradient6125);stroke-width:2.6;stroke-miterlimit:4;stroke-dasharray:none"
         ry="18.347984"
         rx="19.684334"
         cy="110.52981"
         cx="143.54977"
         id="path12-3" />
      <path
         inkscape:connector-curvature="0"
         id="path6154"
         d="m 115.21942,173.60542 -0.13363,8.15172"
         style="fill:none;stroke:#000000;stroke-width:1.26;stroke-linecap:butt;stroke-linejoin:miter;stroke-miterlimit:4;stroke-dasharray:none;stroke-opacity:1" />
      <path
         inkscape:connector-curvature="0"
         id="path6156"
         d="m 121.90116,181.48987 7.21627,-2.27179"
         style="fill:none;stroke:#000000;stroke-width:2.26;stroke-linecap:butt;stroke-linejoin:miter;stroke-miterlimit:4;stroke-dasharray:none;stroke-opacity:1" />
      <path
         inkscape:connector-curvature="0"
         id="path6158"
         d="m 109.07221,181.2226 -6.94905,-3.20724"
         style="fill:none;stroke:#000000;stroke-width:2.86;stroke-linecap:butt;stroke-linejoin:miter;stroke-miterlimit:4;stroke-dasharray:none;stroke-opacity:1" />
      <path
         sodipodi:nodetypes="ccccc"
         inkscape:connector-curvature="0"
         d="m 115.53068,163.42476 c -9.82,0.007 -18.132026,6.75998 -19.481575,15.82642 2.087181,-18.05743 36.146335,-23.326 36.772515,-0.0331 2.17765,0 1.45177,-2.6e-4 2.17765,0 -1.36494,-9.04878 -9.66527,-15.7822 -19.46859,-15.79335 z"
         style="opacity:1;fill:url(#linearGradient6193);fill-opacity:1;stroke:url(#linearGradient6195);stroke-width:2;stroke-miterlimit:4;stroke-dasharray:none"
         id="path12-3-1" />
      <path
         inkscape:connector-curvature="0"
         id="path6308"
         d="m 132.38624,178.57377 c -0.0134,-3.27459 -1.71083,-7.65881 -3.81574,-9.85537 -3.1913,-3.33026 -8.81859,-5.09919 -14.28308,-4.48986 -5.36852,0.59862 -9.6514,2.5818 -13.19405,6.10947 -2.495906,2.48538 -3.739898,4.60779 -4.319036,7.36885 -0.181245,0.86409 -0.450239,1.46827 -0.653704,1.46827 -0.476692,0 -0.433173,-0.7405 0.154477,-2.62863 1.32642,-4.26179 5.189243,-8.81847 9.255163,-10.91759 3.73154,-1.92649 5.56255,-2.35661 10.02263,-2.35441 4.46312,0.002 6.754,0.50934 10.01057,2.21602 2.74954,1.44096 6.3677,5.11565 7.81621,7.93831 1.13394,2.20969 1.95117,4.5808 1.95117,5.66117 0,0.57293 -0.11087,0.61967 -1.46998,0.61967 h -1.46999 l -0.005,-1.1359 z m 2.1428,0.11533 c 0,-0.94861 -1.99513,-5.89329 -2.26785,-5.62057 -0.0516,0.0516 0.0664,0.71122 0.26218,1.46589 0.19576,0.75468 0.4403,2.04744 0.54342,2.87279 0.16877,1.35076 0.25115,1.50065 0.82487,1.50065 0.35056,0 0.63738,-0.0984 0.63738,-0.21876 z"
         style="opacity:1;fill:#ab0000;fill-opacity:0;stroke-width:1.27279;stroke-miterlimit:4;stroke-dasharray:none" />
      <path
         inkscape:connector-curvature="0"
         id="path6310"
         d="m 132.38624,178.57377 c -0.0134,-3.27459 -1.71083,-7.65881 -3.81574,-9.85537 -3.1913,-3.33026 -8.81859,-5.09919 -14.28308,-4.48986 -5.36852,0.59862 -9.6514,2.5818 -13.19405,6.10947 -2.495906,2.48538 -3.739898,4.60779 -4.319036,7.36885 -0.181245,0.86409 -0.450239,1.46827 -0.653704,1.46827 -0.476692,0 -0.433173,-0.7405 0.154477,-2.62863 1.32642,-4.26179 5.189243,-8.81847 9.255163,-10.91759 3.73154,-1.92649 5.56255,-2.35661 10.02263,-2.35441 4.46312,0.002 6.754,0.50934 10.01057,2.21602 2.74954,1.44096 6.3677,5.11565 7.81621,7.93831 1.13394,2.20969 1.95117,4.5808 1.95117,5.66117 0,0.57293 -0.11087,0.61967 -1.46998,0.61967 h -1.46999 l -0.005,-1.1359 z m 2.1428,0.11533 c 0,-0.94861 -1.99513,-5.89329 -2.26785,-5.62057 -0.0516,0.0516 0.0664,0.71122 0.26218,1.46589 0.19576,0.75468 0.4403,2.04744 0.54342,2.87279 0.16877,1.35076 0.25115,1.50065 0.82487,1.50065 0.35056,0 0.63738,-0.0984 0.63738,-0.21876 z"
         style="opacity:1;fill:#ab0000;fill-opacity:0;stroke-width:1.27279;stroke-miterlimit:4;stroke-dasharray:none" />
      <path
         inkscape:connector-curvature="0"
         id="path6312"
         d="m 133.29245,178.08935 c -0.0775,-1.05777 -0.3027,-2.43022 -0.57141,-3.4829 -0.14188,-0.55582 -0.24604,-1.02295 -0.23147,-1.03807 0.0146,-0.0151 0.23631,0.40983 0.49273,0.94434 0.50643,1.05561 1.04907,2.59718 1.259,3.57663 l 0.13247,0.61805 h -0.51801 -0.51801 z"
         style="opacity:1;fill:#ab0000;fill-opacity:0;stroke-width:0.318198;stroke-miterlimit:4;stroke-dasharray:none" />
      <g
         id="g2255"
         transform="translate(11.744708,10.013938)">
        <path
           style="fill:none;stroke:#000000;stroke-width:3;stroke-linecap:butt;stroke-linejoin:miter;stroke-miterlimit:4;stroke-dasharray:none;stroke-opacity:1"
           d="m 105.51995,65.80161 c -0.1482,-0.468196 -0.41337,-0.914488 -0.44461,-1.404583 -0.0142,-0.222298 0.2165,-0.389464 0.31759,-0.587955 0.86853,-1.705364 1.49402,-2.346613 3.49345,-2.97249 2.04332,-0.63962 4.42615,-0.573323 6.54228,-0.783953 3.81593,-0.37982 7.67272,-0.756081 11.49658,-1.045268 2.58578,-0.195556 5.0099,-0.477221 7.55851,-0.979943 0.67908,-0.13395 1.35311,-0.292777 2.03259,-0.424637 0.44284,-0.08594 0.88923,-0.152437 1.33384,-0.228653 0.12704,-0.02177 0.5091,-0.05014 0.38111,-0.06533 -0.3371,-0.04001 -0.67753,-0.04355 -1.0163,-0.06533"
           id="path1221" />
        <path
           style="fill:none;stroke:#000000;stroke-width:3;stroke-linecap:butt;stroke-linejoin:miter;stroke-miterlimit:4;stroke-dasharray:none;stroke-opacity:1"
           d="m 104.4644,65.463722 c 3.33443,-2.591729 4.8301,-0.55893 8.13021,0.653293 0.31927,0.117277 2.62781,0.721741 2.73123,0.75129 0.59812,0.170884 2.13337,0.904428 2.15961,0.881938 0.0579,-0.0496 0,-0.152432 0,-0.228647"
           id="path1223" />
        <path
           style="fill:none;stroke:#000000;stroke-width:3;stroke-linecap:butt;stroke-linejoin:miter;stroke-miterlimit:4;stroke-dasharray:none;stroke-opacity:1"
           d="m 104.90433,66.777179 c 0.3287,-1.675241 -1.12987,-3.484327 -0.57168,-5.128358 1.02649,-3.023319 4.35148,-6.910184 7.43156,-7.774191 1.21464,-0.340725 2.82674,0.620117 4.00157,0.849283 3.12198,0.608987 5.73061,0.239493 8.70183,-0.81662 2.1172,-0.75256 4.2156,-1.707468 6.22468,-2.711164 0.15428,-0.07708 1.49476,-0.615554 0.57163,-0.457306"
           id="path2166" />
      </g>
      <path
         style="fill:none;stroke:#000000;stroke-width:3;stroke-linecap:butt;stroke-linejoin:miter;stroke-miterlimit:4;stroke-dasharray:none;stroke-opacity:1"
         d="m 84.701306,161.02118 c 0.41589,-0.0134 0.83457,0.01 1.24766,-0.0401 0.17581,-0.0213 0.22327,-0.30092 0.3899,-0.3609 1.00746,-0.36265 1.95716,-0.84735 2.96313,-1.20304 2.48543,-0.8788 5.22017,-0.9216 7.79771,-1.36344 4.797104,-0.8223 9.663494,-1.01411 14.503824,-1.28322 4.88766,-0.27174 10.18,-1.06976 14.97169,0.0802 2.47857,0.59483 5.00954,0.63497 7.40782,1.60404 0.70336,0.2842 1.45744,0.46838 2.18339,0.68172 0.34004,0.0999 1.36483,0.27264 1.0137,0.3208 -0.82574,0.11324 -1.66403,0.0993 -2.49526,0.1604"
         id="path3015" />
      <path
         style="fill:none;stroke:#000000;stroke-width:3;stroke-linecap:butt;stroke-linejoin:miter;stroke-miterlimit:4;stroke-dasharray:none;stroke-opacity:1"
         d="m 84.643617,162.67156 c -0.36389,0.0936 -0.74011,0.14813 -1.09167,0.28071 -0.54959,0.20728 -1.09571,1.95959 -1.48156,2.40607 -1.99952,2.31373 -4.38986,4.07279 -6.16022,6.57658 -0.4335,0.61309 -1.564,1.48954 -1.63756,2.24565 -0.53373,5.48577 12.14823,8.53108 15.5955,10.74708 2.07941,1.33672 4.7273,3.10178 3.66495,6.01516 -0.57819,1.58562 -6.52707,4.73672 -3.35302,6.77709 1.43126,0.92005 5.73451,0.72095 7.48578,0.7619 3.935853,0.092 7.912853,0.30533 11.852603,0.0802 2.3445,-0.13398 4.66468,-0.45011 7.01799,-0.52132 4.2163,-0.12759 8.96993,-0.33303 13.17813,0 2.56887,0.20329 5.32807,0.40717 7.79772,-0.40101 4.66807,-1.52761 -0.90498,-5.19573 0.31192,-7.69939 0.50927,-1.04776 2.27221,-2.25311 3.19709,-2.88727 2.9717,-2.03758 5.88293,-4.16668 8.81142,-6.29587 1.59716,-1.16122 6.54685,-4.67636 6.23819,-7.05777 -0.11033,-0.85116 -1.39512,-1.78719 -2.0274,-2.28577 -1.6266,-1.28265 -3.27475,-2.54619 -4.91254,-3.8096 -1.1561,-0.89181 -2.00502,-2.15878 -3.1971,-3.00758 -1.85824,-1.32312 -3.53316,-2.8272 -5.4584,-4.05022 -0.66554,-0.42279 -1.2128,-0.95698 -1.87145,-1.36343 -0.0746,-0.046 -0.16164,-0.16989 -0.23398,-0.1203 -0.29651,0.20333 -0.23389,0.56051 -0.23389,0.84212"
         id="path3273" />
      <path
         style="fill:none;stroke:#000000;stroke-width:3;stroke-linecap:butt;stroke-linejoin:miter;stroke-miterlimit:4;stroke-dasharray:none;stroke-opacity:1"
         d="m 65.463001,128.22024 c 2.198569,3.0142 5.508914,5.31702 7.173915,8.74202 0.393137,0.8087 0.557255,1.70891 0.935731,2.52637 0.403154,0.87075 0.975209,1.63651 1.403599,2.48626 1.102405,2.18675 1.626401,4.6959 2.33926,7.01769 1.009465,3.28783 2.417295,6.82491 2.417295,10.30596 0,1.64785 0.311933,3.26407 0.311933,4.89234 0,1.02411 0.09886,2.11095 0,3.12788 -0.06903,0.71014 -0.311933,1.31934 -0.311933,2.04514 0,0.36805 -0.594265,4.09032 -0.467866,4.09032 0.492509,0 0.531596,-0.83402 0.857766,-1.20304"
         id="path4614" />
      <path
         style="fill:none;stroke:#000000;stroke-width:3;stroke-linecap:butt;stroke-linejoin:miter;stroke-miterlimit:4;stroke-dasharray:none;stroke-opacity:1"
         d="m 163.54335,123.00734 c -2.19857,3.0142 -5.50891,5.31702 -7.17392,8.74202 -0.39313,0.8087 -0.55725,1.70891 -0.93573,2.52637 -0.40315,0.87075 -0.97521,1.63651 -1.4036,2.48626 -1.1024,2.18675 -1.6264,4.6959 -2.33926,7.01769 -1.00946,3.28783 -2.41729,6.82491 -2.41729,10.30596 0,1.64785 -0.31193,3.26407 -0.31193,4.89234 0,1.02411 -0.0989,2.11095 0,3.12788 0.069,0.71014 0.31193,1.31934 0.31193,2.04514 0,0.36805 0.59426,4.09032 0.46787,4.09032 -0.49251,0 -0.5316,-0.83402 -0.85777,-1.20304"
         id="path4614-0" />
      <path
         style="fill:none;stroke:#000000;stroke-width:3;stroke-linecap:butt;stroke-linejoin:miter;stroke-miterlimit:4;stroke-dasharray:none;stroke-opacity:1"
         d="m 61.055714,94.913094 c 0.522578,0.542084 -0.790168,0.822577 -0.992492,0.510395 -0.279524,-0.4313 1.287944,-2.963908 1.488715,-3.402687 0.89163,-1.94863 0.992341,-4.338154 1.654157,-6.380038 1.042728,-3.217122 3.408547,-7.154429 6.065215,-9.243957 2.114503,-1.6631 4.971127,-2.687495 7.443671,-3.657889 5.71767,-2.243997 11.843597,-3.738554 17.975085,-4.253362 3.639582,-0.305583 7.374475,-0.116729 11.027665,-0.141777 6.43578,-0.04412 12.81468,-0.559766 19.24331,0.170138 2.16358,0.245652 4.33784,0.871246 6.45117,1.361075 2.32586,0.539086 4.72972,0.900813 7.00258,1.644628 2.47861,0.811149 4.54049,2.136521 6.83714,3.317616 1.02419,0.526706 2.10139,0.960094 3.08774,1.559571 2.6122,1.587624 6.28468,4.707022 8.27073,7.060565 1.14419,1.35591 1.41166,2.974043 2.26068,4.451852 0.53178,0.925611 1.29793,1.576504 2.04012,2.325169 1.17193,1.182156 1.89846,3.230203 2.20555,4.848831 0.35966,1.895687 -0.0518,4.001148 0.0551,5.926346 0.045,0.81074 0.25109,1.61249 0.38597,2.41023 0.062,0.36682 0.0458,0.84491 0.16539,1.19095 0.34469,0.99704 1.43326,1.65065 1.70928,2.60872 0.16563,0.57488 -0.0255,1.20564 0.0552,1.78641 0.10587,0.76235 0.55136,1.57609 0.55136,2.35352 0,0.99235 -0.90057,1.8537 -1.37846,2.63709 -0.44796,0.73433 -0.40451,1.1837 -0.66166,1.87147 -0.17681,0.47288 -0.51235,0.77382 -0.77192,1.19094 -0.44941,0.72219 -0.4411,1.55833 -0.4411,2.38189 0,0.76238 0.43994,1.32503 0.55136,2.06996 0.0149,0.0998 -0.0697,1.28048 0,1.30436 0.40054,0.1373 0.58264,-0.61837 0.8271,-0.96409"
         id="path4900" />
      <path
         style="fill:none;stroke:#000000;stroke-width:3;stroke-linecap:butt;stroke-linejoin:miter;stroke-miterlimit:4;stroke-dasharray:none;stroke-opacity:1"
         d="m 68.396393,81.31177 c -5.064532,-2.410318 -10.881856,-3.267753 -15.484502,-6.913044 -1.907109,-1.51043 -3.394914,-3.655462 -5.221512,-5.295103 -1.902769,-1.708016 -3.976569,-3.11858 -5.8217,-4.927388 -0.238639,-0.233939 -2.179744,-2.451958 -2.400675,-2.316603 -0.06301,0.03861 -1.043269,2.776302 -1.140326,2.978487 -0.908501,1.892536 -1.896832,3.741503 -2.760829,5.662823 -0.826625,1.83822 -1.431048,3.805137 -2.220644,5.662816 -1.29414,3.044723 -3.112916,5.838381 -4.561308,8.788393 -2.386251,4.8602 -4.555227,9.972477 -6.481904,15.113099 -0.767702,2.04832 -1.327547,3.66676 -1.920549,5.84667 -1.084165,3.98546 0.262126,-0.0747 -0.900241,3.86101 -0.712778,2.41339 -1.706332,4.70188 -2.460733,7.0969 -0.631943,2.00626 -1.134504,4.06469 -1.860539,6.03054 -1.730567,4.68579 -3.634118,7.87602 -4.62132,13.01711 -0.04412,0.22975 -0.480722,2.58584 -0.180078,2.83142 0.481043,0.3929 4.95216,-0.61084 5.52161,-0.73543 2.67101,-0.58447 4.768221,-1.64219 7.289674,-2.71168 1.670377,-0.70849 3.482001,-1.34166 5.041482,-2.35337 1.780356,-1.155 3.562772,-2.2964 5.341528,-3.45652 1.490574,-0.97217 2.881591,-2.1888 4.44129,-3.01527 1.459201,-0.77321 2.954044,-1.44319 4.441289,-2.13275 3.213405,-1.48989 6.161809,-3.63322 9.242731,-5.44219 1.417463,-0.83225 2.858379,-1.64095 4.261211,-2.50046 0.547155,-0.33523 1.138466,-0.55041 1.680512,-0.88252 0.04493,-0.0275 0.08899,-0.15782 0.12002,-0.11035 0.05053,0.0774 0,0.19611 0,0.29418"
         id="path5017" />
      <path
         style="fill:none;stroke:#000000;stroke-width:3;stroke-linecap:butt;stroke-linejoin:miter;stroke-miterlimit:4;stroke-dasharray:none;stroke-opacity:1"
         d="m 148.15758,74.062941 c 5.06453,-2.410318 10.88186,-3.267753 15.4845,-6.913044 1.90711,-1.51043 3.39492,-3.655462 5.22151,-5.295103 1.90277,-1.708016 3.97657,-3.11858 5.8217,-4.927388 0.23864,-0.233939 2.17975,-2.451958 2.40068,-2.316603 0.063,0.03861 1.04327,2.776302 1.14032,2.978487 0.90851,1.892536 1.89684,3.741503 2.76083,5.662823 0.82663,1.83822 1.43105,3.805137 2.22065,5.662816 1.29414,3.044723 3.11291,5.838381 4.56131,8.788393 2.38625,4.8602 4.55522,9.972477 6.4819,15.113099 0.7677,2.04832 1.32755,3.66676 1.92055,5.84667 1.08416,3.985459 -0.26213,-0.0747 0.90024,3.861009 0.71278,2.41339 1.70633,4.70188 2.46073,7.0969 0.63194,2.00626 1.1345,4.06469 1.86054,6.03054 1.73056,4.68579 3.63411,7.87602 4.62132,13.01711 0.0441,0.22975 0.48072,2.58584 0.18007,2.83142 -0.48104,0.3929 -4.95215,-0.61084 -5.5216,-0.73543 -2.67101,-0.58447 -4.76822,-1.64219 -7.28967,-2.71168 -1.67038,-0.70849 -3.48201,-1.34166 -5.04149,-2.35337 -1.78035,-1.155 -3.56277,-2.2964 -5.34152,-3.45652 -1.49058,-0.97217 -2.8816,-2.1888 -4.44129,-3.01527 -1.45921,-0.77321 -2.95405,-1.44319 -4.44129,-2.13275 -3.21341,-1.48989 -6.16181,-3.63322 -9.24273,-5.44219 -1.41747,-0.83225 -2.85838,-1.64095 -4.26122,-2.50046 -0.54715,-0.33523 -1.13846,-0.55041 -1.68051,-0.88252 -0.0449,-0.0275 -0.089,-0.15782 -0.12002,-0.11035 -0.0505,0.0774 0,0.19611 0,0.29418"
         id="path5017-3" />
      <path
         style="fill:none;stroke:#000000;stroke-width:3;stroke-linecap:butt;stroke-linejoin:miter;stroke-miterlimit:4;stroke-dasharray:none;stroke-opacity:1"
         d="m 81.509265,183.42664 c 0.286723,0.60267 -0.02133,1.08302 0.05513,1.67299 0.05979,0.4613 0.506759,0.90674 0.771924,1.24765 1.620795,2.08378 3.601599,3.86537 6.010087,5.10403 0.449149,0.231 1.782279,1.23447 2.205509,1.19095 0.349842,-0.036 0.815988,-0.74287 1.047623,-1.02082"
         id="path5186" />
      <path
         style="fill:none;stroke:#000000;stroke-width:3;stroke-linecap:butt;stroke-linejoin:miter;stroke-miterlimit:4;stroke-dasharray:none;stroke-opacity:1"
         d="m 150.10135,182.51926 c 0.0313,1.59451 -0.61476,2.77787 -1.43359,4.08322 -1.92538,3.06937 -4.27337,4.16971 -7.27828,5.86963 -0.54585,0.3088 -1.12057,0.5781 -1.65415,0.90739 -0.16626,0.1026 -0.40135,0.4827 -0.49622,0.31191 -0.0459,-0.0826 0,-0.18904 0,-0.28356"
         id="path5188" />
    </g>
  </g>
</svg>
