<?xml version="1.0" encoding="UTF-8" standalone="no"?>
<!-- Created with Inkscape (http://www.inkscape.org/) -->

<svg
   xmlns:osb="http://www.openswatchbook.org/uri/2009/osb"
   xmlns:dc="http://purl.org/dc/elements/1.1/"
   xmlns:cc="http://creativecommons.org/ns#"
   xmlns:rdf="http://www.w3.org/1999/02/22-rdf-syntax-ns#"
   xmlns:svg="http://www.w3.org/2000/svg"
   xmlns="http://www.w3.org/2000/svg"
   xmlns:xlink="http://www.w3.org/1999/xlink"
   xmlns:sodipodi="http://sodipodi.sourceforge.net/DTD/sodipodi-0.dtd"
   xmlns:inkscape="http://www.inkscape.org/namespaces/inkscape"
   width="210mm"
   height="297mm"
   viewBox="0 0 210 297"
   version="1.1"
   id="svg8"
   inkscape:version="0.92.5 (2060ec1f9f, 2020-04-08)"
   sodipodi:docname="Logo.svg">
  <defs
     id="defs2">
    <linearGradient
       id="linearGradient6082"
       osb:paint="solid">
      <stop
         style="stop-color:#35ce00;stop-opacity:0;"
         offset="0"
         id="stop6080" />
    </linearGradient>
    <linearGradient
       id="linearGradient6076"
       osb:paint="solid">
      <stop
         style="stop-color:#000000;stop-opacity:1;"
         offset="0"
         id="stop6074" />
    </linearGradient>
    <linearGradient
       inkscape:collect="always"
       xlink:href="#linearGradient6076"
       id="linearGradient6078"
       x1="28.899651"
       y1="115.65762"
       x2="90.035294"
       y2="115.65762"
       gradientUnits="userSpaceOnUse"
       gradientTransform="translate(17.639789,-6.4641618)" />
    <linearGradient
       inkscape:collect="always"
       xlink:href="#linearGradient6082"
       id="linearGradient6084"
       x1="28.899651"
       y1="115.65762"
       x2="90.035294"
       y2="115.65762"
       gradientUnits="userSpaceOnUse"
       gradientTransform="translate(17.639789,-6.4641618)" />
    <linearGradient
       inkscape:collect="always"
       xlink:href="#linearGradient6082"
       id="linearGradient6123"
       gradientUnits="userSpaceOnUse"
       gradientTransform="matrix(0.65466444,0,0,0.65070851,94.035352,35.270411)"
       x1="28.899651"
       y1="115.65762"
       x2="90.035294"
       y2="115.65762" />
    <linearGradient
       inkscape:collect="always"
       xlink:href="#linearGradient6076"
       id="linearGradient6125"
       gradientUnits="userSpaceOnUse"
       gradientTransform="matrix(0.65466444,0,0,0.65070851,94.035352,35.270411)"
       x1="28.899651"
       y1="115.65762"
       x2="90.035294"
       y2="115.65762" />
    <linearGradient
       inkscape:collect="always"
       xlink:href="#linearGradient6082"
       id="linearGradient6193"
       gradientUnits="userSpaceOnUse"
       gradientTransform="matrix(0.65466443,0,0,0.65070849,66.015879,106.51339)"
       x1="28.899651"
       y1="115.65762"
       x2="90.035294"
       y2="115.65762" />
    <linearGradient
       inkscape:collect="always"
       xlink:href="#linearGradient6076"
       id="linearGradient6195"
       gradientUnits="userSpaceOnUse"
       gradientTransform="matrix(0.65466443,0,0,0.65070849,66.015879,106.51339)"
       x1="28.899651"
       y1="115.65762"
       x2="90.035294"
       y2="115.65762" />
    <linearGradient
       inkscape:collect="always"
       xlink:href="#linearGradient6082"
       id="linearGradient4052"
       gradientUnits="userSpaceOnUse"
       gradientTransform="matrix(3.9727775,0,0,3.9623302,-368.88696,-355.31103)"
       x1="28.899651"
       y1="115.65762"
       x2="90.035294"
       y2="115.65762" />
    <linearGradient
       inkscape:collect="always"
       xlink:href="#linearGradient6076"
       id="linearGradient4054"
       gradientUnits="userSpaceOnUse"
       gradientTransform="matrix(3.9727775,0,0,3.9623302,-368.88696,-355.31103)"
       x1="28.899651"
       y1="115.65762"
       x2="90.035294"
       y2="115.65762" />
    <linearGradient
       inkscape:collect="always"
       xlink:href="#linearGradient6082"
       id="linearGradient5382"
       gradientUnits="userSpaceOnUse"
       gradientTransform="matrix(9.5890615,0,0,10.709159,-180.47597,-729.18178)"
       x1="28.899651"
       y1="115.65762"
       x2="90.035294"
       y2="115.65762" />
    <linearGradient
       inkscape:collect="always"
       xlink:href="#linearGradient6076"
       id="linearGradient5384"
       gradientUnits="userSpaceOnUse"
       gradientTransform="matrix(9.5890615,0,0,10.709159,-180.47597,-729.18178)"
       x1="28.899651"
       y1="115.65762"
       x2="90.035294"
       y2="115.65762" />
  </defs>
  <sodipodi:namedview
     id="base"
     pagecolor="#ffffff"
     bordercolor="#666666"
     borderopacity="1.0"
     inkscape:pageopacity="0.0"
     inkscape:pageshadow="2"
     inkscape:zoom="0.61382902"
     inkscape:cx="81.755373"
     inkscape:cy="779.04338"
     inkscape:document-units="mm"
     inkscape:current-layer="layer1"
     showgrid="false"
     inkscape:window-width="1920"
     inkscape:window-height="1014"
     inkscape:window-x="0"
     inkscape:window-y="29"
     inkscape:window-maximized="1"
     inkscape:snap-object-midpoints="true"
     inkscape:snap-global="false" />
  <metadata
     id="metadata5">
    <rdf:RDF>
      <cc:Work
         rdf:about="">
        <dc:format>image/svg+xml</dc:format>
        <dc:type
           rdf:resource="http://purl.org/dc/dcmitype/StillImage" />
        <dc:title />
      </cc:Work>
    </rdf:RDF>
  </metadata>
  <g
     inkscape:label="Layer 1"
     inkscape:groupmode="layer"
     id="layer1">
    <ellipse
       id="path10"
       cx="78.309975"
       cy="108.39165"
       rx="3.7417734"
       ry="3.8754082"
       style="stroke-width:0.26458332" />
    <ellipse
       id="path12"
       cx="77.107262"
       cy="109.19346"
       rx="30.067822"
       ry="28.196934"
       style="opacity:1;fill:url(#linearGradient6084);fill-opacity:1;stroke:url(#linearGradient6078);stroke-width:2.70000005;stroke-miterlimit:4;stroke-dasharray:none" />
    <ellipse
       id="path10-5"
       cx="133.75397"
       cy="110.00806"
       rx="2.4496059"
       ry="2.5217612"
       style="stroke-width:0.2;stroke-miterlimit:4;stroke-dasharray:none" />
    <ellipse
       id="path12-3"
       cx="132.96658"
       cy="110.52981"
       rx="19.684334"
       ry="18.347984"
       style="opacity:1;fill:url(#linearGradient6123);fill-opacity:1;stroke:url(#linearGradient6125);stroke-width:2.5999999;stroke-miterlimit:4;stroke-dasharray:none" />
    <path
       style="fill:none;stroke:#000000;stroke-width:3.00757504;stroke-linecap:butt;stroke-linejoin:miter;stroke-miterlimit:4;stroke-dasharray:none;stroke-opacity:1"
       d="m 76.141227,155.96433 c 54.198093,-0.36603 54.515043,-0.18302 54.515043,-0.18302 l 14.57959,15.92244 v 0 l -13.94569,16.8375 v 0 l 6.022,9.51686 v 0 l -58.476884,-0.54905 v 0 L 84.223398,188.9073 63.78026,174.44899 Z"
       id="path6131"
       inkscape:connector-curvature="0" />
    <path
       style="fill:none;stroke:#000000;stroke-width:1.25999999;stroke-linecap:butt;stroke-linejoin:miter;stroke-miterlimit:4;stroke-dasharray:none;stroke-opacity:1"
       d="m 104.63602,173.60542 -0.13363,8.15172"
       id="path6154"
       inkscape:connector-curvature="0" />
    <path
       style="fill:none;stroke:#000000;stroke-width:2.25999999;stroke-linecap:butt;stroke-linejoin:miter;stroke-miterlimit:4;stroke-dasharray:none;stroke-opacity:1"
       d="m 111.31776,181.48987 7.21627,-2.27179"
       id="path6156"
       inkscape:connector-curvature="0" />
    <path
       style="fill:none;stroke:#000000;stroke-width:2.8599999;stroke-linecap:butt;stroke-linejoin:miter;stroke-miterlimit:4;stroke-dasharray:none;stroke-opacity:1"
       d="m 98.488819,181.2226 -6.949006,-3.20724"
       id="path6158"
       inkscape:connector-curvature="0" />
    <path
       id="path12-3-1"
       style="opacity:1;fill:url(#linearGradient6193);fill-opacity:1;stroke:url(#linearGradient6195);stroke-width:2;stroke-miterlimit:4;stroke-dasharray:none"
       d="m 104.94728,163.42476 c -9.819974,0.007 -18.131966,6.75998 -19.481515,15.82642 2.087181,-18.05743 36.146275,-23.326 36.772455,-0.0331 2.17765,0 1.45177,-2.6e-4 2.17765,0 -1.36494,-9.04878 -9.66527,-15.7822 -19.46859,-15.79335 z"
       inkscape:connector-curvature="0"
       sodipodi:nodetypes="ccccc" />
    <path
       style="opacity:1;fill:#ab0000;fill-opacity:0;stroke-width:1.2727921;stroke-miterlimit:4;stroke-dasharray:none"
       d="m 121.80284,178.57377 c -0.0134,-3.27459 -1.71083,-7.65881 -3.81574,-9.85537 -3.1913,-3.33026 -8.81859,-5.09919 -14.28308,-4.48986 -5.368511,0.59862 -9.651359,2.5818 -13.193992,6.10947 -2.495904,2.48538 -3.739896,4.60779 -4.319034,7.36885 -0.181245,0.86409 -0.450239,1.46827 -0.653704,1.46827 -0.476692,0 -0.433173,-0.7405 0.154477,-2.62863 1.32642,-4.26179 5.189239,-8.81847 9.25513,-10.91759 3.73152,-1.92649 5.562523,-2.35661 10.022603,-2.35441 4.46312,0.002 6.754,0.50934 10.01057,2.21602 2.74954,1.44096 6.3677,5.11565 7.81621,7.93831 1.13394,2.20969 1.95117,4.5808 1.95117,5.66117 0,0.57293 -0.11087,0.61967 -1.46998,0.61967 h -1.46999 l -0.005,-1.1359 z m 2.1428,0.11533 c 0,-0.94861 -1.99513,-5.89329 -2.26785,-5.62057 -0.0516,0.0516 0.0664,0.71122 0.26218,1.46589 0.19576,0.75468 0.4403,2.04744 0.54342,2.87279 0.16877,1.35076 0.25115,1.50065 0.82487,1.50065 0.35056,0 0.63738,-0.0984 0.63738,-0.21876 z"
       id="path6308"
       inkscape:connector-curvature="0" />
    <path
       style="opacity:1;fill:#ab0000;fill-opacity:0;stroke-width:1.2727921;stroke-miterlimit:4;stroke-dasharray:none"
       d="m 121.80284,178.57377 c -0.0134,-3.27459 -1.71083,-7.65881 -3.81574,-9.85537 -3.1913,-3.33026 -8.81859,-5.09919 -14.28308,-4.48986 -5.368511,0.59862 -9.651359,2.5818 -13.193992,6.10947 -2.495904,2.48538 -3.739896,4.60779 -4.319034,7.36885 -0.181245,0.86409 -0.450239,1.46827 -0.653704,1.46827 -0.476692,0 -0.433173,-0.7405 0.154477,-2.62863 1.32642,-4.26179 5.189239,-8.81847 9.25513,-10.91759 3.73152,-1.92649 5.562523,-2.35661 10.022603,-2.35441 4.46312,0.002 6.754,0.50934 10.01057,2.21602 2.74954,1.44096 6.3677,5.11565 7.81621,7.93831 1.13394,2.20969 1.95117,4.5808 1.95117,5.66117 0,0.57293 -0.11087,0.61967 -1.46998,0.61967 h -1.46999 l -0.005,-1.1359 z m 2.1428,0.11533 c 0,-0.94861 -1.99513,-5.89329 -2.26785,-5.62057 -0.0516,0.0516 0.0664,0.71122 0.26218,1.46589 0.19576,0.75468 0.4403,2.04744 0.54342,2.87279 0.16877,1.35076 0.25115,1.50065 0.82487,1.50065 0.35056,0 0.63738,-0.0984 0.63738,-0.21876 z"
       id="path6310"
       inkscape:connector-curvature="0" />
    <path
       style="opacity:1;fill:#ab0000;fill-opacity:0;stroke-width:0.31819803;stroke-miterlimit:4;stroke-dasharray:none"
       d="m 122.70905,178.08935 c -0.0775,-1.05777 -0.3027,-2.43022 -0.57141,-3.4829 -0.14188,-0.55582 -0.24604,-1.02295 -0.23147,-1.03807 0.0146,-0.0151 0.23631,0.40983 0.49273,0.94434 0.50643,1.05561 1.04907,2.59718 1.259,3.57663 l 0.13247,0.61805 h -0.51801 -0.51801 z"
       id="path6312"
       inkscape:connector-curvature="0" />
    <path
       style="opacity:1;fill:url(#linearGradient5382);fill-opacity:1;stroke:url(#linearGradient5384);stroke-width:10.13364792;stroke-miterlimit:4;stroke-dasharray:none"
       d="M 129.55273,236.61523 C 56.453314,237.44754 12.362342,373.2226 57.191406,479.03516 c 0.829769,-1.61073 1.556292,-3.01218 2.304688,-4.45899 -0.248844,-0.2691 -0.488844,-0.54775 -0.746094,-0.91406 -0.05238,-0.0877 -0.02123,-0.05 -0.03711,-0.084 -0.07846,-0.093 -0.09442,-0.10582 -0.251953,-0.30273 -0.116901,-0.14589 -0.220988,-0.30233 -0.326172,-0.45703 -0.01058,-0.0151 -0.01116,-0.0227 -0.0293,-0.0488 -0.03923,-0.0227 -0.08127,-0.0399 -0.119141,-0.0644 -0.208819,-0.13569 -0.343748,-0.36323 -0.498047,-0.5586 -0.479531,-0.60737 -0.853346,-1.33742 -1.017578,-2.09375 -0.02835,-0.0877 -0.07706,-0.17025 -0.08594,-0.26171 -0.0036,-0.0378 0.08431,0.12394 0.06836,0.0898 -0.124724,-0.26608 -0.341444,-0.49057 -0.427734,-0.77148 -0.0189,-0.0616 0.184947,0.18024 0.148437,0.12695 -0.139994,-0.20372 -0.307579,-0.38803 -0.460937,-0.58203 -0.520207,-0.87878 -0.255725,-0.35526 -0.742188,-1.92188 -0.02117,-0.0688 0.124481,0.25427 0.111328,0.1836 -0.03024,-0.16252 -0.181856,-0.36174 -0.05664,-0.1875 -0.103144,-0.19881 -0.210893,-0.39422 -0.308594,-0.59571 -0.01701,-0.034 -0.03062,-0.0728 -0.03516,-0.11133 -8.24e-4,-0.008 0.02526,-0.003 0.02148,-0.008 -0.109115,-0.17764 -0.252009,-0.33523 -0.345703,-0.52148 -0.619374,-1.23213 -0.493831,-1.00449 -0.667969,-2.23828 -4.23e-4,-1.31815 -0.0027,-2.63697 0,-3.95508 5.7e-5,-0.73391 -0.01474,-1.46734 0,-2.20117 0.02268,-0.96461 0.0599,-1.92944 -0.101562,-2.88672 0.0421,-0.85712 1.61e-4,-0.70313 0.167968,-1.51758 0.05662,-0.27477 0.117352,-0.54875 0.1875,-0.82031 0.0435,-0.16857 0.133069,-0.32728 0.152344,-0.5 0.06584,-0.59029 -0.06973,-1.19119 0,-1.78125 0.30754,-2.60259 1.77769,-3.90385 3.097656,-3.9043 1.31997,-4.2e-4 2.490055,1.30001 2.197266,3.9043 v 0.002 c -0.06637,0.59044 0.0627,1.19062 0,1.78125 -0.05484,0.51655 -0.159103,1.02676 -0.255859,1.53711 -0.06123,0.32315 -0.151853,0.63903 -0.21875,0.96094 -0.13013,0.62623 -0.112669,0.55747 -0.03516,0.33984 0.0079,-0.008 0.02388,-0.0271 0.02539,-0.0195 0.153109,1.0007 0.09991,2.02194 0.07617,3.0293 -0.01172,0.69222 0.0019,1.38387 0.002,2.07617 -0.0024,1.1828 -0.0024,2.36602 -0.002,3.54883 0.0359,0.059 0.07991,0.1543 0.107422,0.20117 0.04225,0.0718 0.02531,0.0518 0.05664,0.10547 0.465449,-0.52249 1.76692,0.70024 4.123047,4.14453 0.836364,-1.59152 1.474635,-2.7827 1.542969,-2.83399 0.0604,-0.0453 1.263401,3.3502 2.917969,8.10352 -0.0291,0.55083 -0.0413,1.1302 -0.05078,1.71289 0.491162,0.82035 1.011031,1.70011 1.548828,2.61914 2.600318,7.52814 6.373971,18.59441 10.353515,30.27734 -0.236069,-0.0899 -0.480627,-0.15853 -0.720703,-0.23828 0.05435,0.2075 0.101115,0.46807 0.13086,0.84375 0.01096,0.13909 0.06756,0.55095 0.0332,0.41602 -0.07487,-0.29329 -0.07813,-0.602 -0.15625,-0.89453 -0.03851,-0.14438 -0.103225,-0.28009 -0.16211,-0.41797 -0.175672,-0.0567 -0.347601,-0.12243 -0.52539,-0.17383 -0.386901,0.44172 -0.873603,1.43024 -1.388672,2.35547 0.02593,0.0849 0.05859,0.172 0.08398,0.25586 0.26623,0.6887 0.756352,1.24724 1.175781,1.84766 0.06724,0.0964 0.160557,0.17699 0.210938,0.2832 0.167509,0.35263 0.291338,0.72397 0.4375,1.08594 0.0325,0.0971 0.04833,0.20106 0.09766,0.29101 0.04411,0.0805 0.135896,0.1293 0.177734,0.21094 0.550761,1.07425 0.27237,0.7144 0.701172,1.69726 0.03137,0.0722 0.313917,0.49217 0.339844,0.53125 0.252284,0.15156 0.254186,0.60299 0.511719,0.77344 0.04036,0.0265 -0.0143,-0.0965 -0.02148,-0.14453 0.03645,0.0306 0.07123,0.0629 0.109376,0.0918 0.01035,-1.89683 0.01375,-3.82553 0.03516,-5.67383 1.977513,5.80797 3.644048,10.67669 5.644531,16.55469 0.09734,0.21464 0.204096,0.42354 0.341797,0.61328 0.09033,0.13153 0.185198,0.26231 0.271484,0.39648 0.174955,0.27251 0.357592,0.62272 0.574219,0.88281 0.06346,0.0763 0.171295,0.10725 0.234375,0.1836 0.02809,0.034 0.05273,0.0708 0.08008,0.10547 0.0021,-3.05344 0.0055,-6.10689 -0.0039,-9.16016 -0.0155,-6.04172 0.0013,-12.08185 0.08984,-18.12305 -0.105071,-5.33004 -1.000313,-10.51419 0.539062,-15.79101 0.209726,-0.89329 0.411213,-1.78829 0.628906,-2.67969 0.204511,-0.83743 0.493074,-1.65783 0.636719,-2.50781 0.09547,-0.56481 0.165613,-1.13287 0.224609,-1.70313 -0.02872,-0.40531 -0.05427,-0.63736 0.0078,-1.10742 0.0291,-0.22034 0.08494,-0.4363 0.136719,-0.65234 0.0291,-0.43778 0.05648,-0.87611 0.08203,-1.31446 0,-0.22901 4e-6,-0.45834 0,-0.6875 2.3e-5,-0.56603 2.8e-4,-1.1312 0,-1.69726 -2.72e-4,-0.63844 -4.46e-4,-1.27758 0,-1.91602 -0.002,-0.49149 -0.0092,-0.98323 0.0078,-1.47461 0.01739,-0.76845 -0.100379,-1.52713 -0.03711,-2.29687 0.07918,-0.35452 0.153216,-0.71084 0.236328,-1.06445 0.0019,-0.0919 0.0039,-0.19916 0.0039,-0.20899 0.0018,-0.0809 0.004,-0.16326 0.0059,-0.24414 8.16e-4,-0.23773 -0.01405,-0.47523 -0.02539,-0.71289 -2.555784,-2.20362 -4.947967,-3.91783 -7.128906,-5.06836 22.032825,-209.58874 175.848365,185.40461 176.636715,228.50781 56.5465,60.76029 52.96081,66.37094 135.63672,66.51172 83.34339,-0.14324 67.36116,-12.46799 123.97266,-74.08594 30.92103,-42.66615 35.7882,-231.86353 69.65625,-167.74218 -21.4704,38.37437 50.08925,-60.83596 25.26758,-105.86328 158.34752,128.71186 202.42843,173.87796 70.85351,-101.41602 -67.42178,-76.87508 -96.64844,87.48726 -159.75,-49.10742 L 391.18945,238.87891 c -106.00775,9.257 -32.11135,-15.8983 -176.89453,53.39257 -29.40667,-38.84946 -57.874,-55.2051 -83.00976,-55.65039 -0.57916,-0.0102 -1.15683,-0.0113 -1.73243,-0.006 z"
       transform="scale(0.26458333)"
       id="path5375" />
    <path
       style="fill:none;stroke:#000000;stroke-width:2.65199995;stroke-linecap:butt;stroke-linejoin:miter;stroke-miterlimit:4;stroke-dasharray:none;stroke-opacity:1"
       d="m 109.01603,80.12786 c 0.0642,-3.854744 0.0195,-1.698844 -1.6234,-4.623153 -0.18898,-0.336351 -0.25022,-0.786435 -0.40586,-1.155788 -0.25096,-0.595567 -0.51904,-1.178052 -0.8117,-1.733685 -0.85614,-1.62541 -0.031,1.067325 -1.21756,-2.311574 -0.0605,-0.172297 0.0222,-0.387885 0,-0.577899 -0.11341,-0.968864 -0.29245,-1.920604 -0.40586,-2.889468 -0.10147,-0.866843 0.20293,-0.577894 0,-1.733685 -0.0733,-0.417875 -0.31019,-0.747156 -0.40585,-1.155787 -0.0655,-0.279996 0,-3.784401 0,-4.045261 0,-0.577894 0,-1.155786 0,-1.73368 0,-0.385267 -0.0656,-0.78203 0,-1.155791 0.0733,-0.417876 0.2935,-0.755857 0.40585,-1.155788 0.15889,-0.565585 0.21454,-1.188837 0.40586,-1.73368 0.0856,-0.243664 0.27056,-0.385268 0.40585,-0.577899 0.27057,-0.385263 0.49333,-0.853562 0.81171,-1.155788 0.11256,-0.106856 0.27751,0.06091 0.40585,0 0.28698,-0.136211 0.56001,-0.338964 0.81171,-0.577892 0.92871,-0.8816 -0.25379,-0.457443 1.21756,-1.155788 0.15277,-0.07252 1.99581,-0.01585 2.02926,0 0.3988,0.189286 0.66963,1.43025 0.8117,1.73368 0.10609,0.226668 0.29973,0.351226 0.40585,0.577894 0.49952,1.066885 0.71805,2.400486 1.21756,3.467367 0.10608,0.226668 0.35946,0.313604 0.40585,0.577894 0.76004,4.32884 -0.74799,-0.396465 0.40586,2.889471"
       id="path989"
       inkscape:connector-curvature="0" />
    <path
       style="fill:none;stroke:#000000;stroke-width:2.66499996;stroke-linecap:butt;stroke-linejoin:miter;stroke-miterlimit:4;stroke-dasharray:none;stroke-opacity:1"
       d="m 107.72321,78.756558 c 0.88194,-0.125992 1.97536,0.208685 2.64583,-0.377976 0.57676,-0.504664 0.24089,-1.51384 0.37798,-2.267858 0.11492,-0.632073 0.22216,-1.266626 0.37798,-1.889881 0.45295,-1.811806 1.43803,-3.504586 2.64583,-4.913691 0.6243,-0.728348 1.35597,-1.525124 2.26786,-1.889879 0.36992,-0.147971 0.74093,-0.312476 1.13393,-0.377976 0.37283,-0.06214 0.75595,0 1.13392,0 0.50397,0 1.00794,0 1.51191,0 0.37798,0 0.75595,0 1.13393,0 0.37798,0 0.76329,-0.07413 1.13393,0 0.83173,0.166346 0.86406,0.648044 1.5119,1.133928 0.22538,0.169037 0.51437,0.233029 0.75596,0.377975 3.68332,2.209996 -0.1291,-0.09682 1.5119,1.13393 1.31546,0.986597 1.5119,0.65872 1.5119,2.267855 0,0.125992 0,0.251984 0,0.377979 0,0.125992 0.0699,0.273142 0,0.377976 -0.30471,0.457073 -1.30843,1.366543 -1.88988,1.511903 -0.48892,0.122232 -1.06114,-0.22538 -1.5119,0 -0.31874,0.159369 -0.45944,0.558281 -0.75595,0.755954 -0.10484,0.06989 -0.25846,-0.03984 -0.37798,0 -0.26727,0.08909 -0.50397,0.251984 -0.75595,0.377976"
       id="path991"
       inkscape:connector-curvature="0" />
    <path
       style="fill:none;stroke:#000000;stroke-width:2.77099991;stroke-linecap:butt;stroke-linejoin:miter;stroke-miterlimit:4;stroke-dasharray:none;stroke-opacity:1"
       d="m 107.68225,78.862916 c 3.51468,0.663213 5.88275,0.726004 8.95883,0.726004 0.35133,0 0.72069,-0.07652 1.05398,0 0.23568,0.05412 0.3048,0.286474 0.527,0.363002 1.29794,0.447028 -0.47575,-1.053698 1.58097,0.363005 0.27775,0.191318 0.3091,0.500879 0.52698,0.726003 0.2756,0.284761 0.83178,0.419893 1.05398,0.726004 0.0785,0.108226 -0.0555,0.248211 0,0.363002 0.12422,0.256681 0.43172,0.463517 0.52699,0.726006 0.0852,0.234774 0,0.484003 0,0.726004 0,0.121 -0.0785,0.254775 0,0.363001 0.11112,0.153056 0.41589,0.209947 0.52698,0.363002 0.0802,0.110473 0,0.925527 0,1.089006"
       id="path993"
       inkscape:connector-curvature="0" />
    <path
       style="fill:none;stroke:#000000;stroke-width:0.565;stroke-linecap:butt;stroke-linejoin:miter;stroke-miterlimit:4;stroke-dasharray:none;stroke-opacity:1"
       d="m 128.13393,172.49465 24.94643,13.60714 -1.51191,-0.75596 3.40179,0.37798"
       id="path1014"
       inkscape:connector-curvature="0" />
    <path
       style="fill:none;stroke:#000000;stroke-width:0.565;stroke-linecap:butt;stroke-linejoin:miter;stroke-miterlimit:4;stroke-dasharray:none;stroke-opacity:1"
       d="m 123.94564,178.68909 29.13471,5.14484"
       id="path1016"
       inkscape:connector-curvature="0" />
    <path
       style="fill:none;stroke:#000000;stroke-width:0.565;stroke-linecap:butt;stroke-linejoin:miter;stroke-miterlimit:4;stroke-dasharray:none;stroke-opacity:1"
       d="M 75.332547,171.76418 57.735863,168.05343"
       id="path1018"
       inkscape:connector-curvature="0" />
    <path
       style="fill:none;stroke:#000000;stroke-width:0.66302818;stroke-linecap:butt;stroke-linejoin:miter;stroke-miterlimit:4;stroke-dasharray:none;stroke-opacity:1"
       d="m 82.828064,176.98946 -29.133459,0.79071"
       id="path1020"
       inkscape:connector-curvature="0" />
    <path
       style="fill:none;stroke:#000000;stroke-width:0.465;stroke-linecap:butt;stroke-linejoin:miter;stroke-miterlimit:4;stroke-dasharray:none;stroke-opacity:1"
       d="M 78.619045,172.96711 66.523808,190.732"
       id="path1022"
       inkscape:connector-curvature="0" />
    <ellipse
       style="opacity:1;fill:url(#linearGradient4052);fill-opacity:1;stroke:url(#linearGradient4054);stroke-width:2.11638427;stroke-miterlimit:4;stroke-dasharray:none"
       ry="111.72556"
       rx="119.45276"
       cy="102.96266"
       cx="-132.63596"
       id="ellipse4050" />
  </g>
</svg>
